<?xml version="1.0" encoding="utf-8"?>
<!-- Generator: Adobe Illustrator 23.0.5, SVG Export Plug-In . SVG Version: 6.00 Build 0)  -->
<svg version="1.1" id="Capa_1" xmlns="http://www.w3.org/2000/svg" xmlns:xlink="http://www.w3.org/1999/xlink" x="0px" y="0px"
	 viewBox="0 0 1000 1000" style="enable-background:new 0 0 1000 1000;" xml:space="preserve">
<style type="text/css">
	.st0{fill:#666565;}
	.st1{fill:#030404;}
	.st2{fill:#040405;}
	.st3{fill:#040506;}
	.st4{fill:#070809;}
	.st5{fill:#060607;}
	.st6{fill:#0A0B0B;}
	.st7{fill:#090A0B;}
	.st8{fill:#252626;}
	.st9{fill:#181918;}
	.st10{fill:#4C4C4C;}
	.st11{fill:#5A5B5A;}
	.st12{fill:#575757;}
	.st13{fill:#363737;}
	.st14{fill:#FAF9FA;}
	.st15{fill:#FDFDFD;}
	.st16{fill:#F5F4F5;}
	.st17{fill:#0B0B0B;}
	.st18{fill:#DF3232;}
	.st19{fill:#20294F;}
	.st20{fill:#010202;}
	.st21{fill:#E5D912;}
	.st22{fill:#1662A2;}
	.st23{fill:#1462A1;}
	.st24{fill:#E5D90F;}
	.st25{fill:#DF3736;}
</style>
<path class="st0" d="M200.89,633.53c-0.95,0.71-2.31,2.59-3.74,2.65c-3.15,0.13-5.06-2.15-4.56-5.22c0.23-1.44,2.19-3.66,3.37-3.66
	C198.95,627.29,200.65,629.5,200.89,633.53z"/>
<path class="st1" d="M741.15,808.16c-29.61,17.03-42.16,16.6-57.94-2c-18.62-21.95-18.41-51.14,0.55-72.73
	c1.81-2.07,3.91-3.89,5.71-5.97c26.15-30.17,26.14-30.18,59.49-9.92c-0.47-19.04-2.17-36.94-9.48-53.97
	c-3.98-9.26,0.25-15.91,7.15-21.5c6.68-5.42,14.05-5.05,21.24-1.39c7.22,3.68,8.97,10.6,7.34,17.67
	c-7.75,33.55-0.13,66.73,2.87,99.86c1.39,15.32-5.12,32.61,9,46.33c3.46,3.36-0.97,10.38-5.88,13.87
	c-9.72,6.89-16.21-0.25-23.14-5.41C754.68,803.46,748.58,803.48,741.15,808.16z"/>
<path class="st2" d="M174.67,640.7c10.73,1.86,16.07,10.53,19.02,19.39c5.86,17.61,13.08,34.3,23.15,49.93
	c5.55,8.62,10.5,11.21,16.13,0.84c9.72-17.91,25.82-32.4,28.47-54.14c1.28-10.52,7.56-17.88,17.94-20.3
	c6.79-1.58,8.75,4.93,11.85,9.33c6.78,9.63,0.19,15.67-4.42,23.65c-12.81,22.15-30.13,40.83-44.83,61.49
	c-4.43,6.23-7.08,11.24-1.46,18.26c13.12,16.38,18.06,38.03,35.6,52.04c7.22,5.77,10.15,17.62-1.63,24.37
	c-10.73,6.15-16.24-1.48-20.71-10.01c-6.95-13.26-13.87-26.53-21.02-39.68c-6.81-12.54-13.59-13.82-21.08-0.14
	c-7.38,13.47-15.67,26.44-23.32,39.76c-5.48,9.53-13.57,12.09-22.2,6.22c-8.13-5.54-10.43-14.05-3.21-22.59
	c12.41-14.69,23.87-30.47,37.94-43.38c12.64-11.6,12.17-20.69,2.51-33.2c-12.48-16.16-24.23-32.95-35.31-50.11
	C160.3,660.36,164.71,641.73,174.67,640.7z"/>
<path class="st3" d="M525.7,640.48c7.73,9.13,6.16,18.84,2.13,28.93c-6.95,17.42-7.44,35.92-9.93,56.31
	c20.53-9.84,38.05-33.34,59.88-5.19c19.32,24.91,26.39,59.16,9.51,80.86c-24.6,31.62-44.2,7.78-62.33-0.75
	c-6.66-0.52-6.81,2.11-6.71,3.85c0.5,8.58,1.04,19.05-11.02,16.66c-9.57-1.9-14.61-10.14-13.73-22.01
	c3.47-46.64,13.88-93.33,0.45-140.09c-3-10.46,2.85-16.95,11.78-21.28C512.51,637.78,519.99,632.62,525.7,640.48z"/>
<path class="st4" d="M393.46,729.95c0.41-7.49,0.61-15.01,1.26-22.48c2.02-23.03,18.3-37.46,41.34-36.85
	c19.17,0.51,34.67,16.7,36.25,37.85c2.53,33.99-4.67,40.54-41.84,38.88c-5.74-0.26-14.48-7.18-16.45,4.41
	c-1.22,7.14-2.37,16.48,5.9,20.04c7.57,3.25,18.03,3.6,21.04-6.25c3.37-11.04,10.49-11.12,18.85-10.44c5.3,0.43,8.92,4.11,10.1,9.04
	c2.25,9.44-2.67,17.56-8.68,23.21c-22.06,20.74-44.9,16.8-60.64-9.35c-1.72-2.86-4.02-5.36-6.05-8.03
	C387.84,756.8,392.66,743.32,393.46,729.95z"/>
<path class="st5" d="M341.72,746.42c-12.34,2.46-28.45-8.68-25.62,12.92c0.71,5.41,1.86,13.23,10.28,13.29
	c6.55,0.05,14.91,2.16,17.68-6.61c4.59-14.55,15.4-13.82,24.26-7.89c11.3,7.55,4.1,15.56-2.64,23.55
	c-10.89,12.91-22.21,23.21-40.54,16.99c-19.68-6.68-27.06-23.97-28.75-41.62c-1.88-19.53-0.24-39.86,3.08-59.3
	c3.02-17.73,17.35-25.31,34.84-26.61c15.84-1.18,27.64,4,35.27,18.97c7.42,14.56,6.82,29.93,3.52,44.29
	C368.64,753.8,349.83,742.66,341.72,746.42z"/>
<path class="st6" d="M649.35,750.85c1.48,9.48,2.74,19,4.51,28.42c1.58,8.43-0.67,16.12-7.97,19.52
	c-6.32,2.94-14.83,4.57-21.12-0.74c-6.43-5.43-7.01-12.92-3.14-20.55c9.32-18.39,3.8-37.91,4.33-56.98
	c0.15-5.49-1.83-9.36-7.01-11.25c-8.79-3.21-12.09-9.49-8.24-17.79c3.45-7.43,10.35-11.13,18.74-9.89
	c8.34,1.23,16.58,3.14,17.29,14.11c1.2,18.34,2.51,36.68,3.77,55.01C650.13,750.75,649.74,750.8,649.35,750.85z"/>
<path class="st7" d="M836.5,707.73c2.3,27.36,3.93,49.78,6.21,72.14c0.83,8.14,0.36,16.17-7.32,19.59
	c-6.58,2.92-15.57,3.78-21.55-0.9c-6.49-5.09-5.93-13.06-2.22-20.64c8.64-17.65,4.1-36.48,4.58-54.88
	c0.16-6.16-1.95-10.73-7.66-13.17c-8.61-3.67-10.98-10.17-7.93-18.45c2.74-7.42,9.35-9.82,16.61-9.89c9.03-0.09,16.66,3.53,19,12.64
	C837.71,699.98,836.5,706.48,836.5,707.73z"/>
<path class="st8" d="M640.89,658.55c-4.01,8.83-10.91,13.51-20.6,13.41c-7.98-0.09-10.71-6.13-9.85-12.49
	c1.34-9.9,8.18-15.77,18.17-15.34C636.6,644.48,639.19,651.39,640.89,658.55z"/>
<path class="st9" d="M829.86,658.2c-1.84,10.52-11.07,12.53-19.65,13.45c-7.67,0.82-10.7-5.05-10.03-12.22
	c0.92-9.86,8.16-14.69,16.54-15.06C823.82,644.06,829.15,649.33,829.86,658.2z"/>
<path class="st10" d="M202.76,739.91c-1.94,3.82-2.72,7.74-6.79,7.97c-2.82,0.15-5.21-1.56-5.34-4.87
	c-0.15-4.04,2.28-6.79,5.89-6.94C198.57,735.99,200.72,738.57,202.76,739.91z"/>
<path class="st11" d="M612.85,716.73c3.27-0.29,5.21,1.37,6.02,4.36c0.77,2.85,0.53,6.17-2.82,6.28c-1.91,0.06-4.49-2.52-5.71-4.55
	C608.88,720.4,609,717.49,612.85,716.73z"/>
<path class="st12" d="M301.62,667.79c2.86,0.43,5.23,1.47,4.72,4.91c-0.27,1.83-0.59,3.97-3.52,3.65c-2.69-0.3-5.49-0.46-6.07-3.71
	C296.11,669.01,299.05,668.47,301.62,667.79z"/>
<path class="st13" d="M534.4,707.33c-4.14,1.19-3.38-2.64-3.95-4.63c-1.1-3.86,0.73-6.4,4.51-7.6c4.3-1.36,4.34,2.56,4.76,4.57
	C540.5,703.44,538.23,706,534.4,707.33z"/>
<path class="st14" d="M738.02,741.27c9.01,10.61,6.82,22.49,4.91,34.87c-2.13,13.77-11.06,20-22.82,18.77
	c-13.12-1.38-25.45-8.26-27.59-23.12c-1.78-12.38-1.08-25.41,15.42-28.95c2.69-0.58,5.44-0.86,8.16-1.29
	c2.83-1.35,5.11,0.1,7.41,1.44c3.22,2.54,6.41,5.47,10.3,0.92C735.09,742.81,736.49,741.93,738.02,741.27z"/>
<path class="st15" d="M534.83,742.44c8.66-11.38,19.65-17.49,33.29-10.31c11.61,6.1,17.2,31.27,10.86,44.56
	c-6.19,12.99-16.49,13.51-29.33,10.33c-17.84-4.41-27.59-13.26-24.06-32.68C532.26,753.17,533.78,747.99,534.83,742.44z"/>
<path class="st14" d="M434.26,730.77c-7.4-0.92-18.82,0.11-14.08-7.54c6.91-11.17-9.75-31.54,11.84-33.84
	c13.34-1.43,20.45,11.23,19.66,23.99C451.04,723.51,445.82,732.7,434.26,730.77z"/>
<path class="st16" d="M327.72,731.25c-8.85-12.31-3.79-25.78-1.05-37.89c2-8.84,18.74-5.62,24.61,5.19c5,9.21,5.46,19.56,4.81,29.9
	C346.73,730.38,337.48,733.47,327.72,731.25z"/>
<path class="st17" d="M327.72,731.25c5.66-3.21,14.63,5.07,18.52-8.39c2.33-8.04,1.64,12.07,9.85,5.6
	C347.55,738.71,337.6,734.61,327.72,731.25z"/>
<path class="st18" d="M130.53,511.86h53.68h144.21c0,0-31.58-286.07-98.95-262.91S130.53,511.86,130.53,511.86z"/>
<path class="st19" d="M191.58,569.58"/>
<path class="st20" d="M184.21,507.64c0,0-2.54,55.84,8.79,56.38c11.33,0.54,11.33,0.54,11.33,0.54h14.83c0,0,9.31-0.81,10.32-9.44
	s0-47.48,0-47.48"/>
<path class="st20" d="M237.33,506.63c0,0-2.54,55.84,8.79,56.38c11.33,0.54,11.33,0.54,11.33,0.54h14.4c0.37,0,0.73-0.03,1.09-0.09
	c2.14-0.37,8.82-2.11,9.66-9.35c1.01-8.63,0-47.48,0-47.48"/>
<path class="st21" d="M395.87,458.46h53.68h144.21c0,0-31.58-286.07-98.95-262.91S395.87,458.46,395.87,458.46z"/>
<path class="st19" d="M456.93,516.19"/>
<path class="st20" d="M446.66,457.26c0,0-2.54,55.84,8.79,56.38s11.33,0.54,11.33,0.54h14.83c0,0,9.31-0.81,10.32-9.44
	c1.01-8.63,0-47.48,0-47.48"/>
<path class="st20" d="M499.78,456.25c0,0-2.54,55.84,8.79,56.38c11.33,0.54,11.33,0.54,11.33,0.54h14.4c0.37,0,0.73-0.03,1.09-0.09
	c2.14-0.37,8.82-2.11,9.66-9.35c1.01-8.63,0-47.48,0-47.48"/>
<path class="st22" d="M644.64,526.93h53.68h144.21c0,0-31.58-286.07-98.95-262.91S644.64,526.93,644.64,526.93z"/>
<path class="st19" d="M954.46,799.85"/>
<path class="st20" d="M697.92,523.76c0,0-2.54,55.84,8.79,56.38c11.33,0.54,11.33,0.54,11.33,0.54h14.83c0,0,9.31-0.81,10.32-9.44
	c1.01-8.63,0-47.48,0-47.48"/>
<path class="st20" d="M751.04,522.75c0,0-2.54,55.84,8.79,56.38c11.33,0.54,11.33,0.54,11.33,0.54h14.4c0.37,0,0.73-0.03,1.09-0.09
	c2.14-0.37,8.82-2.11,9.66-9.35c1.01-8.63,0-47.48,0-47.48"/>
<path class="st20" d="M803.39,203.4c0.01-0.44,0.03-0.88,0.03-1.33c0-33.7-27.32-61.01-61.01-61.01s-61.01,27.32-61.01,61.01
	s27.32,61.01,61.01,61.01c16.03,0,30.61-6.19,41.5-16.3c3.44,1.92,7.4,3.02,11.62,3.02c13.18,0,23.87-10.68,23.87-23.87
	C819.4,215.51,812.71,206.65,803.39,203.4z"/>
<path class="st20" d="M174.89,163.15c-0.15,0.42-0.31,0.83-0.45,1.25c-10.48,32.02,6.98,66.48,39,76.97
	c32.02,10.48,66.48-6.98,76.97-39s-6.98-66.48-39-76.97c-15.24-4.99-31.02-3.64-44.51,2.58c-2.67-2.9-6.09-5.18-10.11-6.49
	c-12.53-4.1-26.01,2.73-30.11,15.26C163.44,146.66,167.04,157.16,174.89,163.15z"/>
<circle class="st19" cx="512.94" cy="78.8" r="16.99"/>
<path class="st20" d="M578.67,109.91c0-9.38-7.61-16.99-16.99-16.99c-1.8,0-3.54,0.29-5.17,0.81c0.89-2.07,1.4-4.34,1.4-6.74
	c0-9.38-7.61-16.99-16.99-16.99c-3.5,0-6.75,1.06-9.46,2.88c-1.44-7.92-8.36-13.93-16.7-13.93c-6.89,0-12.8,4.11-15.47,10
	c-2.99-4.86-8.34-8.11-14.46-8.11c-9.23,0-16.73,7.37-16.97,16.54c-2.68-1.76-5.87-2.79-9.31-2.79c-9.38,0-16.99,7.61-16.99,16.99
	c0,4.06,1.43,7.79,3.81,10.71c-2.15-0.98-4.53-1.54-7.04-1.54c-9.38,0-16.99,7.61-16.99,16.99s7.61,16.99,16.99,16.99
	c0.55,0,1.09-0.03,1.62-0.08c-1.05,4.67-1.62,9.52-1.62,14.51c0,36.41,29.52,65.93,65.93,65.93c36.41,0,65.93-29.52,65.93-65.93
	c0-8.03-1.44-15.73-4.07-22.85C573.34,124.34,578.67,117.76,578.67,109.91z M451.5,107.02c0.5,0.23,1.01,0.43,1.54,0.61
	c-0.19,0.24-0.37,0.48-0.56,0.72C452.17,107.89,451.85,107.44,451.5,107.02z"/>
<path class="st20" d="M270.28,274.72l85.46,52.98l113.49-111.72l-39.57,86.05c0,0-58.95,63.42-72.43,68.82
	c-13.48,5.39-68.49-44.5-68.49-44.5"/>
<path class="st20" d="M536.9,223.56l94.84,106.29l93.54-53.69l-38.14,68.59c0,0-39.44,29.59-56.05,26.49s-65.69-69.6-65.69-69.6"/>
<path class="st23" d="M301.84,522.09v93.47l88.18,56.19v-97.89L301.84,522.09z M353.67,600.27l-2.7,20.61l-14.69-14.49l-20.41,4.02
	l9.41-18.62l-9.92-18.13l20.51,3l14.28-15.22l3.27,20.46l18.74,8.72L353.67,600.27z"/>
<path class="st24" d="M394.47,572.47v100.31l85.75-47.73V523.13L394.47,572.47z M456.9,610.99l-34.52,13.03v-26.07l34.52-16.54
	V610.99z"/>
<path class="st25" d="M385.58,470.95l-76.85,49.75l82.52,49.75l80.09-48.53L385.58,470.95z M371.93,536.04v-25.89
	c0,0,12.4-10.79,21.03,0c0,0,16.18-2.78,15.1,8.86C406.99,530.65,371.93,536.04,371.93,536.04z"/>
</svg>
